<?xml version="1.0" encoding="UTF-8" standalone="no"?>
<!-- Created with Inkscape (http://www.inkscape.org/) -->

<svg
   version="1.1"
   id="svg1"
   width="527.12646"
   height="298.55527"
   viewBox="0 0 527.12647 298.55527"
   sodipodi:docname="Spank the monkey logo.svg"
   inkscape:version="1.4.3 (0d15f75, 2025-12-25)"
   xmlns:inkscape="http://www.inkscape.org/namespaces/inkscape"
   xmlns:sodipodi="http://sodipodi.sourceforge.net/DTD/sodipodi-0.dtd"
   xmlns="http://www.w3.org/2000/svg"
   xmlns:svg="http://www.w3.org/2000/svg">
  <defs
     id="defs1" />
  <sodipodi:namedview
     id="namedview1"
     pagecolor="#ffffff"
     bordercolor="#000000"
     borderopacity="0.25"
     inkscape:showpageshadow="2"
     inkscape:pageopacity="0.0"
     inkscape:pagecheckerboard="0"
     inkscape:deskcolor="#d1d1d1"
     inkscape:zoom="1.6580665"
     inkscape:cx="263.56"
     inkscape:cy="270.79734"
     inkscape:window-width="2560"
     inkscape:window-height="1387"
     inkscape:window-x="1080"
     inkscape:window-y="275"
     inkscape:window-maximized="1"
     inkscape:current-layer="g1">
    <inkscape:page
       x="0"
       y="0"
       inkscape:label="1"
       id="page1"
       width="527.12646"
       height="298.55527"
       margin="0"
       bleed="0" />
  </sodipodi:namedview>
  <g
     id="g1"
     inkscape:groupmode="layer"
     inkscape:label="1"
     transform="translate(-2.0393543e-4,0.00152345)">
    <path
       id="path2"
       d="m 94.622931,162.18134 c -13.774,3.55733 -27.461466,1.216 -39.202666,-8.97333 3.124,-10.65334 8.686,-23.256 8.686,-23.256 9.503066,10.61733 26.152133,12.49333 29.751066,5.392 2.958267,-5.61334 -3.0584,-11.848 -17.845333,-14.492 -14.033866,-2.556 -28.587466,-5.98934 -32.952666,-21.173336 -2.551466,-8.749333 -0.876533,-23.870666 16.296933,-29.631999 17.172933,-5.761333 32.519199,1.3 42.516665,13.264 -9.458399,8.317333 -16.329199,17.001335 -16.329199,17.001335 -3.595333,-5.386669 -9.968666,-8.453335 -14.790133,-7.197335 -3.8572,0.996 -5.073333,4.249333 -3.8416,7.307995 2.080134,5.78134 8.401067,6.35067 19.281733,7.51334 16.090129,1.424 27.015599,8.44666 30.243199,19.81066 4.97613,18.11334 -7.89947,30.84134 -21.813999,34.43467"
       style="fill:#930036;fill-opacity:1;fill-rule:nonzero;stroke:none;stroke-width:0.133333" />
    <path
       id="path3"
       d="m 135.504,102.39467 c -5.218,3.69867 -4.49094,12.77334 -0.368,19.052 3.83866,5.768 10.852,6.74534 15.02933,2.43734 3.728,-3.76267 2.35733,-11.924 -1.07067,-17.21467 C 145.956,101.89601 140.1,99.148008 135.504,102.39467 Z m 19.78933,41.912 c -6.024,1.70134 -11.76267,0.544 -16.652,-2.456 4.74933,16.108 10.36,32.14667 15.66533,44.148 -10.496,-0.81333 -22.204,2.212 -22.204,2.212 -3.3068,-25.89333 -13.622,-69.22133 -22.38813,-95.755995 7.87347,-3.653334 16.64587,-7.242667 16.64587,-7.242667 0.0516,2.482667 0.52453,5.445333 0.92813,8.724 3.07133,-4.610667 7.49813,-7.961333 12.9728,-9.525333 13.29333,-3.725333 25.408,5.632 30.46533,21.223995 4.63067,14.52534 2.16267,33.97734 -15.43333,38.672"
       style="fill:#930036;fill-opacity:1;fill-rule:nonzero;stroke:none;stroke-width:0.133333" />
    <path
       id="path4"
       d="m 198.64533,108.56401 c -3.26,2.16666 -5.91733,6.668 -3.43733,9.99733 2.47333,3.33067 7.36666,2.36133 10.11466,0.47333 3.84133,-2.756 5.55733,-8.04533 3.608,-10.476 -2.33467,-2.78133 -7.3,-2.084 -10.28533,0.005 z m 14.91866,23.04266 c -0.08,-1.44933 -0.12533,-2.768 -0.34266,-4.17733 -2.73867,3.05733 -6.276,5.296 -10.12667,6.88 -8.15466,3.13067 -23.77333,0.69867 -27.252,-11.628 -3.83466,-13.69733 6.71867,-23.481332 17.532,-26.565332 4.27067,-1.106667 8.788,-1.242667 12.93733,0.03867 C 198.56,75.814675 189.81466,82.340008 193.652,92.074675 c -9.57334,2.178666 -19.33467,7.637333 -19.33467,7.637333 -7.50533,-15.398667 1.04,-34.650666 24.496,-31.455999 25.87066,3.453333 24.49066,42.462661 31.104,58.384001 -8.06134,1.79066 -16.35334,4.96666 -16.35334,4.96666"
       style="fill:#930036;fill-opacity:1;fill-rule:nonzero;stroke:none;stroke-width:0.133333" />
    <path
       id="path5"
       d="m 258.27999,116.52401 c 1.76667,-21.029336 -5.54133,-41.917335 -11.75066,-42.072002 -2.968,-0.117333 -5.30267,1.654667 -6.828,5.432 4.61066,15.558666 10.04933,32.081332 13.968,42.681332 0,0 -10.10134,1.86933 -19.388,4.56533 -3.544,-19.95066 -9.51867,-42.506662 -16.32267,-60.879995 0,0 9.67467,-2.942666 16.16133,-7.410666 0.49734,1.926666 1.028,3.996 1.572,6.065333 3.85467,-5.554667 9.14267,-8.393333 15.14,-9.053333 17.34934,-1.694667 27.59867,20.926666 28.79734,58.537331 -10.24534,0.73867 -21.34934,2.13467 -21.34934,2.13467"
       style="fill:#930036;fill-opacity:1;fill-rule:nonzero;stroke:none;stroke-width:0.133333" />
    <path
       id="path6"
       d="m 321.49599,106.95467 c -4.516,-12.353329 -12.74133,-22.570662 -20.59066,-24.517329 2.48266,8.472 5.064,16.188 7.46133,22.615999 -9.64933,2.496 -20.74533,7.86267 -20.74533,7.86267 -3.11734,-28.001335 -15.068,-73.114667 -26.048,-99.669333 0,0 10.488,-4.914667 21.76666,-9.5893336 2.91067,18.6439996 8,42.9013326 13.79467,64.7666646 5.968,-4.771999 8.788,-14.906666 6.544,-28.145332 0,0 13.97333,-0.516 22.47333,-3.452 1.32,13.625333 -2.75466,26.875999 -12.96533,36.266666 11.12667,1.538666 22.63866,9.143999 28.67466,21.689333 -11.35199,4.403999 -20.36533,12.171995 -20.36533,12.171995"
       style="fill:#930036;fill-opacity:1;fill-rule:nonzero;stroke:none;stroke-width:0.133333" />
    <path
       id="path7"
       d="M 43.155732,298.504 C 26.425466,299.74 17.666133,277.76134 14.086933,253.10934 10.956773,254.06534 9.0625064,254.704 9.0625064,254.704 7.7364531,248.44 7.0677065,242.43867 7.0677065,242.43867 l 5.7161465,-1.77333 c -0.57552,-7.34667 -0.666147,-14.524 -0.443227,-21.04267 9.402573,-2.29067 19.01924,-4.33333 19.01924,-4.33333 -0.914533,6.708 -1.241067,13.4 -1.0572,19.82 l 13.460933,-4.21067 c 0,0 0.585333,8.51867 2.4,15.548 -5.174,0.452 -10.376667,1.352 -15.2688,2.32133 1.5552,17.97334 5.8688,31.256 9.183333,31.57867 3.352534,0.45867 3.262534,-6.72 1.0604,-14.68 10.0464,0.78133 19.449466,2.472 19.449466,2.472 2.8068,19.40667 -5.604133,29.516 -17.432266,30.36533"
       style="fill:#930036;fill-opacity:1;fill-rule:nonzero;stroke:none;stroke-width:0.133333" />
    <path
       id="path8"
       d="m 93.481731,282.416 c 1.9604,-22.544 -5.670267,-40.70266 -11.744266,-40.904 -3.242667,-0.0453 -5.4348,2.28267 -6.9572,6.06 3.8796,15.01734 8.0244,28.78667 12.001999,38.492 -8.678666,2.23734 -18.343199,6.35067 -18.343199,6.35067 C 62.676532,262.16134 49.124532,214.824 39.046399,188.32801 c 10.415066,-5.192 21.693733,-10.456 21.693733,-10.456 1.5812,12.376 5.434933,32.98133 10.188533,53.65066 3.9932,-5.58933 9.457333,-8.324 15.459333,-8.992 17.344262,-1.68667 27.865602,20.28 29.023462,57.75067 -10.83493,0.15466 -21.929729,2.13466 -21.929729,2.13466"
       style="fill:#930036;fill-opacity:1;fill-rule:nonzero;stroke:none;stroke-width:0.133333" />
    <path
       id="path9"
       d="m 132.75573,221.71867 c -3.162,1.40933 -4.362,6.42133 -3.72453,12.868 3.81933,-1.14 9.77413,-3.116 14.10746,-5.108 -2.35733,-5.71733 -6.25333,-9.41733 -10.38293,-7.76 z M 152.08,269.78 c -11.22,3.77467 -25.9784,0.68534 -34.906,-15.67466 -9.76827,-17.90267 -6.84534,-41.288 12.22906,-46.50667 18.25027,-5.01066 29.45694,7.08267 34.87694,24.64 0,0 -18.11467,4.97333 -32.93307,11.89333 2.93173,8.49734 7.87973,14.564 12.31973,12.97334 4.16134,-1.51467 3.492,-7.51467 1.18,-12.496 0,0 12.10534,-4.89467 23.74267,-8.77867 5.01867,20.00533 -5.664,30.412 -16.50933,33.94933"
       style="fill:#930036;fill-opacity:1;fill-rule:nonzero;stroke:none;stroke-width:0.133333" />
    <path
       id="path10"
       d="m 253.16533,245.28267 c -1.07334,-13.83867 -4.19067,-33.89333 -9.008,-53.66266 -1.676,10.572 -3.15067,24.17866 -3.65467,35.91866 -6.07867,-9.896 -14.56267,-21.664 -23.22,-30.74666 4.776,19.63599 12.17467,43.15066 18.344,55.66266 -13.06,2.34667 -25.108,5.75067 -25.108,5.75067 -1.89467,-25.52 -14.696,-69.37867 -25.03066,-93.456 0,0 12.47466,-2.34933 24.01199,-5.472 0,0 9.21867,18.63333 20.72134,33.00133 3.07066,-17.10533 -1.61867,-43.81333 -1.61867,-43.81333 13.25867,-2.68933 24.61467,-7.09333 24.61467,-7.09333 1.228,29.21733 14.21333,74.35599 25.596,95.07599 -13.75467,2.52267 -25.648,8.83467 -25.648,8.83467"
       style="fill:#930036;fill-opacity:1;fill-rule:nonzero;stroke:none;stroke-width:0.133333" />
    <path
       id="path11"
       d="m 292.21199,189.78267 c -5.78133,2.084 -6.86666,12.652 -3.104,20.93333 2.988,7.01734 7.63334,9.04934 11.24,7.67734 5.36667,-1.972 6.40267,-9.884 3.97067,-17.04 -2.936,-8.504 -8.03867,-12.91467 -12.10667,-11.57067 z m 13.02534,41.30533 c -7.98134,2.65867 -21.96267,2.004 -29.70934,-13.77466 -8.944,-18.11333 -5.48533,-43.4 11.70534,-47.99067 12.35066,-3.336 26.23066,6.00667 32.244,24.72934 5.23866,16.28266 1.048,31.92133 -14.24,37.03599"
       style="fill:#930036;fill-opacity:1;fill-rule:nonzero;stroke:none;stroke-width:0.133333" />
    <path
       id="path12"
       d="m 355.52532,214.72134 c 1.77067,-21.032 -5.536,-41.92 -11.74533,-42.07467 -2.97467,-0.116 -5.30267,1.65334 -6.828,5.432 4.604,15.55867 10.056,32.08933 13.968,42.68267 0,0 -10.10133,1.87333 -19.388,4.57066 -3.544,-19.95733 -9.51733,-42.51466 -16.32266,-60.88799 0,0 9.67466,-2.94267 16.16,-7.41067 0.49866,1.92667 1.02933,3.99733 1.56666,6.068 3.85333,-5.54933 9.14933,-8.396 15.15067,-9.06267 17.34533,-1.68666 27.58933,20.94134 28.792,58.54667 -10.24267,0.73733 -21.35334,2.136 -21.35334,2.136"
       style="fill:#930036;fill-opacity:1;fill-rule:nonzero;stroke:none;stroke-width:0.133333" />
    <path
       id="path13"
       d="m 418.73999,205.14801 c -4.51467,-12.35067 -12.73333,-22.56934 -20.58533,-24.50934 2.484,8.47067 5.05733,16.18 7.45733,22.61467 -9.64133,2.49067 -20.74667,7.85733 -20.74667,7.85733 -3.116,-28.00133 -15.06666,-73.11466 -26.04266,-99.66933 0,0 10.48933,-4.91333 21.76666,-9.58933 2.912,18.644 7.99467,42.90266 13.796,64.76533 5.96934,-4.772 8.788,-14.90533 6.544,-28.136 0,0 13.976,-0.52533 22.47334,-3.46 1.31866,13.624 -2.756,26.876 -12.97334,36.272 11.12934,1.53467 22.648,9.13867 28.67467,21.68533 -11.34267,4.40934 -20.364,12.16934 -20.364,12.16934"
       style="fill:#930036;fill-opacity:1;fill-rule:nonzero;stroke:none;stroke-width:0.133333" />
    <path
       id="path14"
       d="m 448.63066,140.11734 c -3.16267,1.404 -4.36667,6.41333 -3.732,12.86933 3.82133,-1.14 9.77733,-3.11733 14.11066,-5.12133 -2.35466,-5.70533 -6.248,-9.404 -10.37866,-7.748 z m 19.31599,48.06133 c -11.21333,3.77734 -25.97199,0.68 -34.89599,-15.67466 -9.77867,-17.9 -6.84934,-41.28534 12.22266,-46.512 18.25067,-5.004 29.45733,7.08933 34.88267,24.64 0,0 -18.12,4.97866 -32.936,11.88533 2.92933,8.50533 7.88267,14.57867 12.31867,12.98667 4.16533,-1.512 3.49333,-7.51467 1.17866,-12.49467 0,0 12.10533,-4.896 23.74,-8.78133 5.024,20.008 -5.65867,30.41466 -16.51067,33.95066"
       style="fill:#930036;fill-opacity:1;fill-rule:nonzero;stroke:none;stroke-width:0.133333" />
    <path
       id="path15"
       d="m 517.09599,214.276 c -11.27867,-4.43866 -22.324,-9.07599 -22.324,-9.07599 5.44533,-10.22267 9.352,-22.98934 11.54933,-36.636 -20.12533,-22.724 -34.676,-43.21067 -34.676,-43.21067 0,0 10.148,-4.53467 20.78533,-7.72133 0,0 6.712,15.752 16.20667,28.58933 0.684,-13.256 -0.104,-26.58 -2.06267,-38.12267 0,0 10.936,-0.912 20.552,-1.77866 -3.44666,31.01066 -0.87333,81.92933 -10.03066,107.95599"
       style="fill:#930036;fill-opacity:1;fill-rule:nonzero;stroke:none;stroke-width:0.133333" />
    <path
       id="path16"
       d="m 88.535464,159.80267 c -13.775066,3.556 -27.462532,1.21467 -39.203732,-8.97733 3.127067,-10.65733 8.685467,-23.25467 8.685467,-23.25467 9.503066,10.62 26.152532,12.49334 29.755199,5.388 2.955733,-5.61466 -3.063067,-11.848 -17.848933,-14.49333 -14.033333,-2.54667 -28.590666,-5.988 -32.949999,-21.173332 -2.553734,-8.742667 -0.879734,-23.869333 16.296799,-29.630666 17.172933,-5.756 32.516133,1.3 42.514133,13.262666 -9.457867,8.322667 -16.328667,17.002666 -16.328667,17.002666 -3.5964,-5.387999 -9.969333,-8.446666 -14.790666,-7.198666 -3.857733,0.996 -5.072933,4.249333 -3.8416,7.314666 2.0796,5.782666 8.401067,6.350666 19.282266,7.507996 16.0896,1.42934 27.011999,8.45334 30.245869,19.80934 4.97346,18.12 -7.9032,30.848 -21.816136,34.44266"
       style="fill:#930036;fill-opacity:1;fill-rule:nonzero;stroke:none;stroke-width:0.133333" />
    <path
       id="path17"
       d="m 88.535464,159.80267 c -13.775066,3.556 -27.462532,1.21467 -39.203732,-8.97733 3.127067,-10.65733 8.685467,-23.25467 8.685467,-23.25467 9.503066,10.62 26.152532,12.49334 29.755199,5.388 2.955733,-5.61466 -3.063067,-11.848 -17.848933,-14.49333 -14.033333,-2.54667 -28.590666,-5.988 -32.949999,-21.173332 -2.553734,-8.742667 -0.879734,-23.869333 16.296799,-29.630666 17.172933,-5.756 32.516133,1.3 42.514133,13.262666 -9.457867,8.322667 -16.328667,17.002666 -16.328667,17.002666 -3.5964,-5.387999 -9.969333,-8.446666 -14.790666,-7.198666 -3.857733,0.996 -5.072933,4.249333 -3.8416,7.314666 2.0796,5.782666 8.401067,6.350666 19.282266,7.507996 16.0896,1.42934 27.011999,8.45334 30.245869,19.80934 4.97346,18.12 -7.9032,30.848 -21.816136,34.44266 z"
       style="fill:#d00036;stroke:#1c1b1d;stroke-width:1.80276;stroke-linecap:butt;stroke-linejoin:miter;stroke-miterlimit:4;stroke-dasharray:none;stroke-opacity:1;fill-opacity:1" />
    <path
       id="path18"
       d="m 129.41306,100.00801 c -5.21573,3.7 -4.488,12.77333 -0.36573,19.05333 3.83813,5.768 10.85267,6.75067 15.03,2.43733 3.73067,-3.75733 2.35733,-11.92533 -1.068,-17.20933 -3.14267,-4.771999 -8.99733,-7.526666 -13.59627,-4.28133 z m 19.79227,41.91333 c -6.024,1.70133 -11.764,0.544 -16.65587,-2.45733 4.7532,16.116 10.36787,32.14666 15.6732,44.14933 -10.49733,-0.81467 -22.20866,2.212 -22.20866,2.212 -3.30667,-25.88667 -13.62227,-69.22267 -22.3848,-95.757332 7.8708,-3.653333 16.64213,-7.236 16.64213,-7.236 0.0552,2.482667 0.5276,5.445333 0.92867,8.718667 3.07133,-4.612 7.4984,-7.956 12.972,-9.52 13.29333,-3.726667 25.40933,5.632 30.46666,21.223995 4.63334,14.52534 2.164,33.97867 -15.43333,38.66667"
       style="fill:#930036;fill-opacity:1;fill-rule:nonzero;stroke:none;stroke-width:0.133333" />
    <path
       id="path19"
       d="m 129.41306,100.00801 c -5.21573,3.7 -4.488,12.77333 -0.36573,19.05333 3.83813,5.768 10.85267,6.75067 15.03,2.43733 3.73067,-3.75733 2.35733,-11.92533 -1.068,-17.20933 -3.14267,-4.771999 -8.99733,-7.526666 -13.59627,-4.28133 z m 19.79227,41.91333 c -6.024,1.70133 -11.764,0.544 -16.65587,-2.45733 4.7532,16.116 10.36787,32.14666 15.6732,44.14933 -10.49733,-0.81467 -22.20866,2.212 -22.20866,2.212 -3.30667,-25.88667 -13.62227,-69.22267 -22.3848,-95.757332 7.8708,-3.653333 16.64213,-7.236 16.64213,-7.236 0.0552,2.482667 0.5276,5.445333 0.92867,8.718667 3.07133,-4.612 7.4984,-7.956 12.972,-9.52 13.29333,-3.726667 25.40933,5.632 30.46666,21.223995 4.63334,14.52534 2.164,33.97867 -15.43333,38.66667 z"
       style="fill:#d00036;stroke:#1c1b1d;stroke-width:1.80276;stroke-linecap:butt;stroke-linejoin:miter;stroke-miterlimit:4;stroke-dasharray:none;stroke-opacity:1;fill-opacity:1" />
    <path
       id="path20"
       d="m 192.556,106.17734 c -3.25867,2.17333 -5.91334,6.67467 -3.436,9.99867 2.47333,3.336 7.36266,2.36666 10.11333,0.47866 3.84133,-2.756 5.56266,-8.05066 3.60933,-10.48933 -2.33467,-2.768 -7.29866,-2.08267 -10.28666,0.012 z m 14.91999,23.04267 c -0.0813,-1.448 -0.12666,-2.76 -0.34266,-4.172 -2.74,3.052 -6.276,5.28933 -10.13067,6.876 -8.152,3.136 -23.76933,0.704 -27.24533,-11.62267 -3.83867,-13.70267 6.716,-23.487999 17.52533,-26.565332 4.272,-1.106667 8.792,-1.249333 12.944,0.02533 -7.75466,-20.331999 -16.50133,-13.806666 -12.66533,-4.074666 -9.57467,2.185333 -19.33067,7.645333 -19.33067,7.645333 -7.508,-15.405333 1.03867,-34.657333 24.49734,-31.455999 25.87066,3.453333 24.48799,42.461334 31.09999,58.384004 -8.06133,1.784 -16.352,4.96 -16.352,4.96"
       style="fill:#930036;fill-opacity:1;fill-rule:nonzero;stroke:none;stroke-width:0.133333" />
    <path
       id="path21"
       d="m 192.556,106.17734 c -3.25867,2.17333 -5.91334,6.67467 -3.436,9.99867 2.47333,3.336 7.36266,2.36666 10.11333,0.47866 3.84133,-2.756 5.56266,-8.05066 3.60933,-10.48933 -2.33467,-2.768 -7.29866,-2.08267 -10.28666,0.012 z m 14.91999,23.04267 c -0.0813,-1.448 -0.12666,-2.76 -0.34266,-4.172 -2.74,3.052 -6.276,5.28933 -10.13067,6.876 -8.152,3.136 -23.76933,0.704 -27.24533,-11.62267 -3.83867,-13.70267 6.716,-23.487999 17.52533,-26.565332 4.272,-1.106667 8.792,-1.249333 12.944,0.02533 -7.75466,-20.331999 -16.50133,-13.806666 -12.66533,-4.074666 -9.57467,2.185333 -19.33067,7.645333 -19.33067,7.645333 -7.508,-15.405333 1.03867,-34.657333 24.49734,-31.455999 25.87066,3.453333 24.48799,42.461334 31.09999,58.384004 -8.06133,1.784 -16.352,4.96 -16.352,4.96 z"
       style="fill:#d00036;stroke:#1c1b1d;stroke-width:1.80276;stroke-linecap:butt;stroke-linejoin:miter;stroke-miterlimit:4;stroke-dasharray:none;stroke-opacity:1;fill-opacity:1" />
    <path
       id="path22"
       d="m 252.19466,114.13867 c 1.76,-21.023995 -5.54267,-41.918662 -11.756,-42.081328 -2.968,-0.108 -5.30267,1.670666 -6.82267,5.446666 4.60934,15.558667 10.04934,32.076002 13.96267,42.681332 0,0 -10.096,1.87067 -19.38933,4.56667 -3.53734,-19.95734 -9.51334,-42.514669 -16.31867,-60.881335 0,0 9.67333,-2.942666 16.16267,-7.410666 0.49333,1.926666 1.02933,3.996 1.56666,6.06 3.85334,-5.556 9.144,-8.388 15.14534,-9.061333 17.344,-1.681334 27.60133,20.941332 28.78933,58.545334 -10.24133,0.73866 -21.34,2.13466 -21.34,2.13466"
       style="fill:#930036;fill-opacity:1;fill-rule:nonzero;stroke:none;stroke-width:0.133333" />
    <path
       id="path23"
       d="m 252.19466,114.13867 c 1.76,-21.023995 -5.54267,-41.918662 -11.756,-42.081328 -2.968,-0.108 -5.30267,1.670666 -6.82267,5.446666 4.60934,15.558667 10.04934,32.076002 13.96267,42.681332 0,0 -10.096,1.87067 -19.38933,4.56667 -3.53734,-19.95734 -9.51334,-42.514669 -16.31867,-60.881335 0,0 9.67333,-2.942666 16.16267,-7.410666 0.49333,1.926666 1.02933,3.996 1.56666,6.06 3.85334,-5.556 9.144,-8.388 15.14534,-9.061333 17.344,-1.681334 27.60133,20.941332 28.78933,58.545334 -10.24133,0.73866 -21.34,2.13466 -21.34,2.13466 z"
       style="fill:#d00036;stroke:#1c1b1d;stroke-width:1.80276;stroke-linecap:butt;stroke-linejoin:miter;stroke-miterlimit:4;stroke-dasharray:none;stroke-opacity:1;fill-opacity:1" />
    <path
       id="path24"
       d="m 315.40266,104.57467 c -4.51333,-12.358662 -12.74,-22.575995 -20.584,-24.517328 2.47733,8.465333 5.06267,16.181332 7.456,22.615998 -9.648,2.48933 -20.74533,7.85067 -20.74533,7.85067 -3.116,-27.989335 -15.06667,-73.102667 -26.04934,-99.656 0,0 10.49067,-4.9159999 21.77334,-9.5973332 2.904,18.6506662 8,42.9026652 13.79466,64.7733322 5.964,-4.772 8.78267,-14.913333 6.544,-28.145333 0,0 13.96934,-0.522667 22.47467,-3.453333 1.31333,13.619999 -2.756,26.870666 -12.96667,36.267999 11.12267,1.533333 22.63467,9.137333 28.67467,21.689333 -11.35733,4.398666 -20.372,12.171995 -20.372,12.171995"
       style="fill:#930036;fill-opacity:1;fill-rule:nonzero;stroke:none;stroke-width:0.133333" />
    <path
       id="path25"
       d="m 315.40266,104.57467 c -4.51333,-12.358662 -12.74,-22.575995 -20.584,-24.517328 2.47733,8.465333 5.06267,16.181332 7.456,22.615998 -9.648,2.48933 -20.74533,7.85067 -20.74533,7.85067 -3.116,-27.989335 -15.06667,-73.102667 -26.04934,-99.656 0,0 10.49067,-4.9159999 21.77334,-9.5973332 2.904,18.6506662 8,42.9026652 13.79466,64.7733322 5.964,-4.772 8.78267,-14.913333 6.544,-28.145333 0,0 13.96934,-0.522667 22.47467,-3.453333 1.31333,13.619999 -2.756,26.870666 -12.96667,36.267999 11.12267,1.533333 22.63467,9.137333 28.67467,21.689333 -11.35733,4.398666 -20.372,12.171995 -20.372,12.171995 z"
       style="fill:#d00036;stroke:#1c1b1d;stroke-width:1.80276;stroke-linecap:butt;stroke-linejoin:miter;stroke-miterlimit:4;stroke-dasharray:none;stroke-opacity:1;fill-opacity:1" />
    <path
       id="path26"
       d="M 37.067732,296.12534 C 20.336933,297.35467 11.57396,275.38134 7.9979198,250.728 4.8687465,251.68534 2.9734399,252.31867 2.9734399,252.31867 1.64688,246.04534 0.97864531,240.05734 0.97864531,240.05734 l 5.71666119,-1.772 c -0.57552,-7.34667 -0.6661333,-14.524 -0.4432267,-21.05734 9.4036532,-2.276 19.0167192,-4.32 19.0167192,-4.32 -0.912,6.70134 -1.238533,13.40134 -1.051066,19.816 l 13.457333,-4.21066 c 0,0 0.585333,8.51866 2.4,15.54133 -5.170934,0.45867 -10.372933,1.36533 -15.2688,2.33467 1.5552,17.97066 5.8688,31.25466 9.1828,31.564 3.353066,0.46666 3.262533,-6.712 1.060933,-14.66667 10.050533,0.78933 19.4484,2.472 19.4484,2.472 2.807866,19.40133 -5.602534,29.51467 -17.430667,30.36667"
       style="fill:#930036;fill-opacity:1;fill-rule:nonzero;stroke:none;stroke-width:0.133333" />
    <path
       id="path27"
       d="M 37.067732,296.12534 C 20.336933,297.35467 11.57396,275.38134 7.9979198,250.728 4.8687465,251.68534 2.9734399,252.31867 2.9734399,252.31867 1.64688,246.04534 0.97864531,240.05734 0.97864531,240.05734 l 5.71666119,-1.772 c -0.57552,-7.34667 -0.6661333,-14.524 -0.4432267,-21.05734 9.4036532,-2.276 19.0167192,-4.32 19.0167192,-4.32 -0.912,6.70134 -1.238533,13.40134 -1.051066,19.816 l 13.457333,-4.21066 c 0,0 0.585333,8.51866 2.4,15.54133 -5.170934,0.45867 -10.372933,1.36533 -15.2688,2.33467 1.5552,17.97066 5.8688,31.25466 9.1828,31.564 3.353066,0.46666 3.262533,-6.712 1.060933,-14.66667 10.050533,0.78933 19.4484,2.472 19.4484,2.472 2.807866,19.40133 -5.602534,29.51467 -17.430667,30.36667 z"
       style="fill:#d00036;stroke:#1c1b1d;stroke-width:1.80276;stroke-linecap:butt;stroke-linejoin:miter;stroke-miterlimit:4;stroke-dasharray:none;stroke-opacity:1;fill-opacity:1" />
    <path
       id="path28"
       d="m 87.393731,280.03734 c 1.958933,-22.544 -5.6724,-40.71734 -11.744266,-40.91067 -3.242667,-0.0387 -5.435467,2.28933 -6.9588,6.06533 3.880133,15.016 8.026,28.77867 12.003066,38.492 -8.681733,2.23734 -18.343199,6.34934 -18.343199,6.34934 -5.759333,-30.252 -19.314133,-77.60134 -29.392666,-104.09067 10.415066,-5.188 21.693199,-10.45066 21.693199,-10.45066 1.583867,12.37733 5.435867,32.98133 10.189067,53.64933 3.9932,-5.588 9.457199,-8.328 15.459333,-8.98934 17.341199,-1.69466 27.865595,20.27334 29.023465,57.744 -10.831199,0.14934 -21.929199,2.14134 -21.929199,2.14134"
       style="fill:#930036;fill-opacity:1;fill-rule:nonzero;stroke:none;stroke-width:0.133333" />
    <path
       id="path29"
       d="m 87.393731,280.03734 c 1.958933,-22.544 -5.6724,-40.71734 -11.744266,-40.91067 -3.242667,-0.0387 -5.435467,2.28933 -6.9588,6.06533 3.880133,15.016 8.026,28.77867 12.003066,38.492 -8.681733,2.23734 -18.343199,6.34934 -18.343199,6.34934 -5.759333,-30.252 -19.314133,-77.60134 -29.392666,-104.09067 10.415066,-5.188 21.693199,-10.45066 21.693199,-10.45066 1.583867,12.37733 5.435867,32.98133 10.189067,53.64933 3.9932,-5.588 9.457199,-8.328 15.459333,-8.98934 17.341199,-1.69466 27.865595,20.27334 29.023465,57.744 -10.831199,0.14934 -21.929199,2.14134 -21.929199,2.14134 z"
       style="fill:#d00036;stroke:#1c1b1d;stroke-width:1.80276;stroke-linecap:butt;stroke-linejoin:miter;stroke-miterlimit:4;stroke-dasharray:none;stroke-opacity:1;fill-opacity:1" />
    <path
       id="path30"
       d="m 126.6672,219.33734 c -3.1588,1.41066 -4.36454,6.41466 -3.72454,12.868 3.81827,-1.13867 9.77507,-3.11467 14.108,-5.12 -2.35733,-5.70534 -6.25373,-9.404 -10.38346,-7.748 z m 19.32746,48.06133 c -11.22,3.77867 -25.9816,0.68133 -34.9092,-15.67467 -9.7652,-17.9 -6.84586,-41.28533 12.2296,-46.51066 18.25294,-5.00533 29.4596,7.088 34.8756,24.63733 0,0 -18.11333,4.98267 -32.9328,11.89333 2.9328,8.50534 7.8796,14.572 12.3168,12.97867 4.164,-1.51067 3.49867,-7.51333 1.18267,-12.492 0,0 12.104,-4.90133 23.73733,-8.784 5.02534,20.00933 -5.66133,30.40933 -16.5,33.952"
       style="fill:#930036;fill-opacity:1;fill-rule:nonzero;stroke:none;stroke-width:0.133333" />
    <path
       id="path31"
       d="m 126.6672,219.33734 c -3.1588,1.41066 -4.36454,6.41466 -3.72454,12.868 3.81827,-1.13867 9.77507,-3.11467 14.108,-5.12 -2.35733,-5.70534 -6.25373,-9.404 -10.38346,-7.748 z m 19.32746,48.06133 c -11.22,3.77867 -25.9816,0.68133 -34.9092,-15.67467 -9.7652,-17.9 -6.84586,-41.28533 12.2296,-46.51066 18.25294,-5.00533 29.4596,7.088 34.8756,24.63733 0,0 -18.11333,4.98267 -32.9328,11.89333 2.9328,8.50534 7.8796,14.572 12.3168,12.97867 4.164,-1.51067 3.49867,-7.51333 1.18267,-12.492 0,0 12.104,-4.90133 23.73733,-8.784 5.02534,20.00933 -5.66133,30.40933 -16.5,33.952 z"
       style="fill:#d00036;stroke:#1c1b1d;stroke-width:1.80276;stroke-linecap:butt;stroke-linejoin:miter;stroke-miterlimit:4;stroke-dasharray:none;stroke-opacity:1;fill-opacity:1" />
    <path
       id="path32"
       d="m 247.08533,242.89467 c -1.07334,-13.83067 -4.20267,-33.892 -9.01467,-53.656 -1.68133,10.568 -3.15467,24.17467 -3.65333,35.92133 -6.084,-9.896 -14.56,-21.66533 -23.22267,-30.74666 4.776,19.63466 12.17333,43.14666 18.34667,55.656 -13.06667,2.352 -25.112,5.75333 -25.112,5.75333 -1.89067,-25.516 -14.69467,-69.38133 -25.02933,-93.46 0,0 12.47466,-2.34 24.01199,-5.47066 0,0 9.21867,18.63866 20.72,33.008 3.07467,-17.112 -1.62,-43.82 -1.62,-43.82 13.264,-2.692 24.62,-7.08934 24.62,-7.08934 1.228,29.22 14.21334,74.35733 25.588,95.07867 -13.748,2.52133 -25.63466,8.82533 -25.63466,8.82533"
       style="fill:#930036;fill-opacity:1;fill-rule:nonzero;stroke:none;stroke-width:0.133333" />
    <path
       id="path33"
       d="m 247.08533,242.89467 c -1.07334,-13.83067 -4.20267,-33.892 -9.01467,-53.656 -1.68133,10.568 -3.15467,24.17467 -3.65333,35.92133 -6.084,-9.896 -14.56,-21.66533 -23.22267,-30.74666 4.776,19.63466 12.17333,43.14666 18.34667,55.656 -13.06667,2.352 -25.112,5.75333 -25.112,5.75333 -1.89067,-25.516 -14.69467,-69.38133 -25.02933,-93.46 0,0 12.47466,-2.34 24.01199,-5.47066 0,0 9.21867,18.63866 20.72,33.008 3.07467,-17.112 -1.62,-43.82 -1.62,-43.82 13.264,-2.692 24.62,-7.08934 24.62,-7.08934 1.228,29.22 14.21334,74.35733 25.588,95.07867 -13.748,2.52133 -25.63466,8.82533 -25.63466,8.82533 z"
       style="fill:#d00036;stroke:#1c1b1d;stroke-width:1.80276;stroke-linecap:butt;stroke-linejoin:miter;stroke-miterlimit:4;stroke-dasharray:none;stroke-opacity:1;fill-opacity:1" />
    <path
       id="path34"
       d="m 286.13466,187.39734 c -5.78933,2.08933 -6.876,12.65467 -3.11733,20.94 2.98666,7.016 7.62933,9.048 11.23866,7.676 5.368,-1.98 6.40934,-9.88133 3.97067,-17.048 -2.92133,-8.49733 -8.032,-12.90933 -12.092,-11.568 z m 13.01733,41.31866 c -7.98666,2.63734 -21.96133,1.99067 -29.716,-13.78933 -8.936,-18.11466 -5.484,-43.40533 11.70534,-47.984 12.35866,-3.344 26.236,6 32.24533,24.728 5.23733,16.284 1.04667,31.908 -14.23467,37.04533"
       style="fill:#930036;fill-opacity:1;fill-rule:nonzero;stroke:none;stroke-width:0.133333" />
    <path
       id="path35"
       d="m 286.13466,187.39734 c -5.78933,2.08933 -6.876,12.65467 -3.11733,20.94 2.98666,7.016 7.62933,9.048 11.23866,7.676 5.368,-1.98 6.40934,-9.88133 3.97067,-17.048 -2.92133,-8.49733 -8.032,-12.90933 -12.092,-11.568 z m 13.01733,41.31866 c -7.98666,2.63734 -21.96133,1.99067 -29.716,-13.78933 -8.936,-18.11466 -5.484,-43.40533 11.70534,-47.984 12.35866,-3.344 26.236,6 32.24533,24.728 5.23733,16.284 1.04667,31.908 -14.23467,37.04533 z"
       style="fill:#d00036;stroke:#1c1b1d;stroke-width:1.80276;stroke-linecap:butt;stroke-linejoin:miter;stroke-miterlimit:4;stroke-dasharray:none;stroke-opacity:1;fill-opacity:1" />
    <path
       id="path36"
       d="m 349.43866,212.33467 c 1.76533,-21.02533 -5.54134,-41.91333 -11.74934,-42.07466 -2.96933,-0.11734 -5.30399,1.66133 -6.82399,5.44 4.61199,15.55733 10.05066,32.076 13.96266,42.68133 0,0 -10.09467,1.86666 -19.388,4.56533 -3.544,-19.95733 -9.52,-42.50666 -16.32133,-60.88 0,0 9.67467,-2.944 16.16,-7.412 0.49867,1.928 1.03467,3.99734 1.572,6.06667 3.85333,-5.556 9.144,-8.39333 15.14533,-9.068 17.344,-1.68 27.59467,20.94133 28.792,58.55333 -10.24533,0.73067 -21.34933,2.128 -21.34933,2.128"
       style="fill:#930036;fill-opacity:1;fill-rule:nonzero;stroke:none;stroke-width:0.133333" />
    <path
       id="path37"
       d="m 349.43866,212.33467 c 1.76533,-21.02533 -5.54134,-41.91333 -11.74934,-42.07466 -2.96933,-0.11734 -5.30399,1.66133 -6.82399,5.44 4.61199,15.55733 10.05066,32.076 13.96266,42.68133 0,0 -10.09467,1.86666 -19.388,4.56533 -3.544,-19.95733 -9.52,-42.50666 -16.32133,-60.88 0,0 9.67467,-2.944 16.16,-7.412 0.49867,1.928 1.03467,3.99734 1.572,6.06667 3.85333,-5.556 9.144,-8.39333 15.14533,-9.068 17.344,-1.68 27.59467,20.94133 28.792,58.55333 -10.24533,0.73067 -21.34933,2.128 -21.34933,2.128 z"
       style="fill:#d00036;stroke:#1c1b1d;stroke-width:1.80276;stroke-linecap:butt;stroke-linejoin:miter;stroke-miterlimit:4;stroke-dasharray:none;stroke-opacity:1;fill-opacity:1" />
    <path
       id="path38"
       d="m 412.65466,202.76934 c -4.51467,-12.35333 -12.74,-22.57733 -20.59067,-24.51733 2.48133,8.472 5.06267,16.17466 7.46133,22.61466 -9.64933,2.484 -20.74533,7.856 -20.74533,7.856 -3.11733,-27.99466 -15.068,-73.108 -26.04933,-99.66 0,0 10.48933,-4.916 21.768,-9.597329 2.91066,18.650669 8.008,42.901329 13.8,64.773329 5.96266,-4.77333 8.784,-14.91333 6.54666,-28.144 0,0 13.968,-0.51866 22.46534,-3.45333 1.32,13.61867 -2.75467,26.86933 -12.96,36.26533 11.12133,1.54 22.63466,9.14667 28.67466,21.692 -11.35466,4.39867 -20.37066,12.17067 -20.37066,12.17067"
       style="fill:#930036;fill-opacity:1;fill-rule:nonzero;stroke:none;stroke-width:0.133333" />
    <path
       id="path39"
       d="m 412.65466,202.76934 c -4.51467,-12.35333 -12.74,-22.57733 -20.59067,-24.51733 2.48133,8.472 5.06267,16.17466 7.46133,22.61466 -9.64933,2.484 -20.74533,7.856 -20.74533,7.856 -3.11733,-27.99466 -15.068,-73.108 -26.04933,-99.66 0,0 10.48933,-4.916 21.768,-9.597329 2.91066,18.650669 8.008,42.901329 13.8,64.773329 5.96266,-4.77333 8.784,-14.91333 6.54666,-28.144 0,0 13.968,-0.51866 22.46534,-3.45333 1.32,13.61867 -2.75467,26.86933 -12.96,36.26533 11.12133,1.54 22.63466,9.14667 28.67466,21.692 -11.35466,4.39867 -20.37066,12.17067 -20.37066,12.17067 z"
       style="fill:#d00036;stroke:#1c1b1d;stroke-width:1.80276;stroke-linecap:butt;stroke-linejoin:miter;stroke-miterlimit:4;stroke-dasharray:none;stroke-opacity:1;fill-opacity:1" />
    <path
       id="path40"
       d="m 442.53732,137.73734 c -3.16133,1.40267 -4.364,6.41467 -3.73066,12.86133 3.82933,-1.13066 9.77733,-3.11066 14.11066,-5.11466 -2.35333,-5.71067 -6.24666,-9.40134 -10.38,-7.74667 z m 19.324,48.056 c -11.22,3.784 -25.97733,0.68533 -34.90133,-15.66933 -9.77333,-17.90134 -6.84933,-41.28534 12.228,-46.51067 18.25067,-5.00667 29.456,7.088 34.876,24.63867 0,0 -18.11333,4.97333 -32.92933,11.88533 2.92933,8.50533 7.87733,14.57867 12.31333,12.98667 4.16533,-1.51334 3.49067,-7.51467 1.176,-12.50667 0,0 12.11466,-4.88933 23.74666,-8.77733 5.02,20.016 -5.664,30.41733 -16.50933,33.95333"
       style="fill:#930036;fill-opacity:1;fill-rule:nonzero;stroke:none;stroke-width:0.133333" />
    <path
       id="path41"
       d="m 442.53732,137.73734 c -3.16133,1.40267 -4.364,6.41467 -3.73066,12.86133 3.82933,-1.13066 9.77733,-3.11066 14.11066,-5.11466 -2.35333,-5.71067 -6.24666,-9.40134 -10.38,-7.74667 z m 19.324,48.056 c -11.22,3.784 -25.97733,0.68533 -34.90133,-15.66933 -9.77333,-17.90134 -6.84933,-41.28534 12.228,-46.51067 18.25067,-5.00667 29.456,7.088 34.876,24.63867 0,0 -18.11333,4.97333 -32.92933,11.88533 2.92933,8.50533 7.87733,14.57867 12.31333,12.98667 4.16533,-1.51334 3.49067,-7.51467 1.176,-12.50667 0,0 12.11466,-4.88933 23.74666,-8.77733 5.02,20.016 -5.664,30.41733 -16.50933,33.95333 z"
       style="fill:#d00036;stroke:#1c1b1d;stroke-width:1.80276;stroke-linecap:butt;stroke-linejoin:miter;stroke-miterlimit:4;stroke-dasharray:none;stroke-opacity:1;fill-opacity:1" />
    <path
       id="path42"
       d="m 511.01732,211.888 c -11.292,-4.43066 -22.336,-9.07333 -22.336,-9.07333 5.44533,-10.22533 9.348,-22.98933 11.55467,-36.636 -20.12534,-22.72533 -34.67467,-43.21333 -34.67467,-43.21333 0,0 10.14533,-4.52667 20.77733,-7.71467 0,0 6.72,15.748 16.20667,28.57867 0.68533,-13.252 -0.10267,-26.56667 -2.056,-38.11733 0,0 10.928,-0.90534 20.55067,-1.77734 -3.45334,31.02267 -0.88,81.92934 -10.02267,107.95333"
       style="fill:#930036;fill-opacity:1;fill-rule:nonzero;stroke:none;stroke-width:0.133333" />
    <path
       id="path43"
       d="m 511.01732,211.888 c -11.292,-4.43066 -22.336,-9.07333 -22.336,-9.07333 5.44533,-10.22533 9.348,-22.98933 11.55467,-36.636 -20.12534,-22.72533 -34.67467,-43.21333 -34.67467,-43.21333 0,0 10.14533,-4.52667 20.77733,-7.71467 0,0 6.72,15.748 16.20667,28.57867 0.68533,-13.252 -0.10267,-26.56667 -2.056,-38.11733 0,0 10.928,-0.90534 20.55067,-1.77734 -3.45334,31.02267 -0.88,81.92934 -10.02267,107.95333 z"
       style="fill:#d00036;stroke:#1c1b1d;stroke-width:1.80276;stroke-linecap:butt;stroke-linejoin:miter;stroke-miterlimit:4;stroke-dasharray:none;stroke-opacity:1;fill-opacity:1" />
  </g>
</svg>
